<svg xmlns="http://www.w3.org/2000/svg" viewBox="0 0 112 112" width="112" height="112">
<rect width="112" height="112" fill="#dfeec3"/>
<circle cx="56" cy="42" r="30" fill="#dfeec3"/>
<path d="M20 112c0-20 16-32 36-32s36 12 36 32z" fill="#2f5a1a"/>
<path d="M46 70h20v14c0 5-20 5-20 0z" fill="#f2cfae"/>
<ellipse cx="56" cy="52" rx="24" ry="27" fill="#f2cfae"/>
<ellipse cx="33" cy="55" rx="4" ry="6" fill="#f2cfae"/><ellipse cx="79" cy="55" rx="4" ry="6" fill="#f2cfae"/>
<path d="M30 48c0-16 11-27 26-27s26 11 26 27v14c-3 2-6 1-7-2V50c-9 6-29 6-38 0v10c-1 3-4 4-7 2z" fill="#5b3a24"/>
<circle cx="46" cy="56" r="2.6" fill="#2b2723"/><circle cx="66" cy="56" r="2.6" fill="#2b2723"/>
<path d="M50 66c4 3 8 3 12 0" fill="none" stroke="#2b2723" stroke-width="2.2" stroke-linecap="round"/>
<circle cx="41" cy="63" r="3.4" fill="#f0a89a" opacity=".55"/><circle cx="71" cy="63" r="3.4" fill="#f0a89a" opacity=".55"/>
<circle cx="33" cy="64" r="3" fill="#b7e34a" stroke="#2f5a1a" stroke-width="1.4"/><circle cx="79" cy="64" r="3" fill="#b7e34a" stroke="#2f5a1a" stroke-width="1.4"/>
</svg>