<svg xmlns="http://www.w3.org/2000/svg" viewBox="0 0 112 112" width="112" height="112">
<rect width="112" height="112" fill="#dfeec3"/>
<circle cx="56" cy="42" r="30" fill="#dfeec3"/>
<path d="M20 112c0-20 16-32 36-32s36 12 36 32z" fill="#2f5a1a"/>
<path d="M46 70h20v14c0 5-20 5-20 0z" fill="#eecfae"/>
<ellipse cx="56" cy="52" rx="24" ry="27" fill="#eecfae"/>
<ellipse cx="33" cy="55" rx="4" ry="6" fill="#eecfae"/><ellipse cx="79" cy="55" rx="4" ry="6" fill="#eecfae"/>
<path d="M32 48c0-16 10-26 24-26s24 10 24 26v4c-2 3-6 3-7 0v-3c-9 5-25 5-34 0v3c-1 3-5 3-7 0z" fill="#2b2723"/><circle cx="56" cy="17" r="9" fill="#2b2723"/>
<circle cx="46" cy="56" r="2.6" fill="#2b2723"/><circle cx="66" cy="56" r="2.6" fill="#2b2723"/>
<path d="M50 66c4 3 8 3 12 0" fill="none" stroke="#2b2723" stroke-width="2.2" stroke-linecap="round"/>
<circle cx="41" cy="63" r="3.4" fill="#f0a89a" opacity=".55"/><circle cx="71" cy="63" r="3.4" fill="#f0a89a" opacity=".55"/>

</svg>